<svg width="166" height="35" viewBox="0 0 166 35" fill="none" xmlns="http://www.w3.org/2000/svg">
<path d="M0.837358 0.0909081H11.2862L20.1499 21.7045H20.5589L29.4226 0.0909081H39.8715V35H31.6555V13.5568H31.3658L22.9794 34.7784H17.7294L9.34304 13.4375H9.05327V35H0.837358V0.0909081ZM45.1342 35V0.0909081H69.4751V6.94318H53.5717V14.1023H68.2308V20.9716H53.5717V28.1477H69.4751V35H45.1342ZM82.3104 35H73.2422L85.0206 0.0909081H96.2536L108.032 35H98.9638L90.7649 8.88636H90.4922L82.3104 35ZM81.1001 21.2614H100.055V27.6705H81.1001V21.2614ZM111.79 35V0.0909081H120.228V28.1477H134.751V35H111.79ZM131.989 0.0909081H141.415L148.796 14.6989H149.103L156.484 0.0909081H165.91L153.143 23.3409V35H144.756V23.3409L131.989 0.0909081Z" fill="black"/>
</svg>
