<svg width="54" height="54" viewBox="0 0 54 54" fill="none" xmlns="http://www.w3.org/2000/svg">
<path d="M31.5 40.5C31.5 42.9853 29.4853 45 27 45C24.5147 45 22.5 42.9853 22.5 40.5M19.125 40.5C14.7758 40.5 11.25 36.9742 11.25 32.625C11.25 30.8572 11.8325 29.2254 12.816 27.9112C14.3919 25.8054 15.75 22.8801 15.75 20.25C15.75 14.0368 20.7868 9 27 9C33.2132 9 38.25 14.0368 38.25 20.25C38.25 22.8801 39.6081 25.8054 41.184 27.9112C42.1675 29.2254 42.75 30.8572 42.75 32.625C42.75 36.9742 39.2242 40.5 34.875 40.5H19.125Z" stroke="#11111A" stroke-width="3" stroke-linecap="round" stroke-linejoin="round"/>
</svg>
