<svg width="32" height="40" viewBox="0 0 32 40" fill="none" xmlns="http://www.w3.org/2000/svg">
<path d="M16 20C17.1 20 18.042 19.608 18.826 18.824C19.61 18.04 20.0013 17.0987 20 16C20 14.9 19.608 13.958 18.824 13.174C18.04 12.39 17.0987 11.9987 16 12C14.9 12 13.958 12.392 13.174 13.176C12.39 13.96 11.9987 14.9013 12 16C12 17.1 12.392 18.042 13.176 18.826C13.96 19.61 14.9013 20.0013 16 20ZM16 39.25C15.7333 39.25 15.4667 39.2 15.2 39.1C14.9333 39 14.7 38.8667 14.5 38.7C9.63333 34.4 6 30.408 3.6 26.724C1.2 23.04 0 19.5987 0 16.4C0 11.4 1.60867 7.41667 4.826 4.45C8.04333 1.48333 11.768 0 16 0C20.2333 0 23.9587 1.48333 27.176 4.45C30.3933 7.41667 32.0013 11.4 32 16.4C32 19.6 30.8 23.042 28.4 26.726C26 30.41 22.3667 34.4013 17.5 38.7C17.3 38.8667 17.0667 39 16.8 39.1C16.5333 39.2 16.2667 39.25 16 39.25Z" fill="#FA5A00"/>
</svg>
