<svg width="54" height="54" viewBox="0 0 54 54" fill="none" xmlns="http://www.w3.org/2000/svg">
<path d="M45.5625 12.6568H37.9329C37.7102 9.91008 36.4619 7.34784 34.4362 5.47965C32.4104 3.61146 29.7557 2.57422 27 2.57422C24.2443 2.57422 21.5896 3.61146 19.5638 5.47965C17.5381 7.34784 16.2898 9.91008 16.0671 12.6568H8.4375C7.31862 12.6568 6.24556 13.1012 5.45439 13.8924C4.66322 14.6836 4.21875 15.7566 4.21875 16.8755V42.188C4.21875 43.3069 4.66322 44.3799 5.45439 45.1711C6.24556 45.9623 7.31862 46.4068 8.4375 46.4068H45.5625C46.6814 46.4068 47.7544 45.9623 48.5456 45.1711C49.3368 44.3799 49.7812 43.3069 49.7812 42.188V16.8755C49.7812 15.7566 49.3368 14.6836 48.5456 13.8924C47.7544 13.1012 46.6814 12.6568 45.5625 12.6568ZM27 7.59425C28.4201 7.5944 29.7927 8.10623 30.8662 9.03599C31.9397 9.96575 32.6422 11.2512 32.8451 12.6568H21.1549C21.3578 11.2512 22.0603 9.96575 23.1338 9.03599C24.2073 8.10623 25.5799 7.5944 27 7.59425ZM44.7188 41.3443H9.28125V17.7193H16.0312V20.2505C16.0313 20.9218 16.2979 21.5657 16.7726 22.0404C17.2473 22.5151 17.8912 22.7818 18.5625 22.7818C19.2338 22.7818 19.8777 22.5151 20.3524 22.0404C20.8271 21.5657 21.0937 20.9218 21.0938 20.2505V17.7193H32.9062V20.2505C32.9062 20.9218 33.1729 21.5657 33.6476 22.0404C34.1223 22.5151 34.7662 22.7818 35.4375 22.7818C36.1088 22.7818 36.7527 22.5151 37.2274 22.0404C37.7021 21.5657 37.9688 20.9218 37.9688 20.2505V17.7193H44.7188V41.3443Z" fill="#32324D"/>
</svg>
