<svg width="29" height="29" viewBox="0 0 29 29" fill="none" xmlns="http://www.w3.org/2000/svg">
<path d="M5.79297 7.79102H4.2513C3.43355 7.79102 2.64929 8.11587 2.07106 8.6941C1.49282 9.27234 1.16797 10.0566 1.16797 10.8743V24.7493C1.16797 25.5671 1.49282 26.3514 2.07106 26.9296C2.64929 27.5078 3.43355 27.8327 4.2513 27.8327H18.1263C18.9441 27.8327 19.7283 27.5078 20.3065 26.9296C20.8848 26.3514 21.2096 25.5671 21.2096 24.7493V23.2077" stroke="#FA5A00" stroke-width="2.33333" stroke-linecap="round" stroke-linejoin="round"/>
<path d="M19.6667 4.7085L24.2917 9.3335M26.4269 7.15204C27.0341 6.54486 27.3752 5.72135 27.3752 4.86266C27.3752 4.00398 27.0341 3.18047 26.4269 2.57329C25.8197 1.96611 24.9962 1.625 24.1375 1.625C23.2788 1.625 22.4553 1.96611 21.8481 2.57329L8.875 15.5002V20.1252H13.5L26.4269 7.15204Z" stroke="#FA5A00" stroke-width="2.33333" stroke-linecap="round" stroke-linejoin="round"/>
</svg>
