<svg width="32" height="32" viewBox="0 0 32 32" fill="none" xmlns="http://www.w3.org/2000/svg">
<path d="M19.2434 2.2285C19.2868 2.06605 19.3618 1.91376 19.4642 1.78032C19.5665 1.64688 19.6941 1.53491 19.8397 1.45081C19.9853 1.36671 20.1461 1.31213 20.3128 1.29018C20.4795 1.26823 20.6489 1.27934 20.8114 1.32289C23.1843 1.94201 25.3493 3.1825 27.0833 4.91658C28.8174 6.65066 30.0579 8.81566 30.677 11.1886C30.7206 11.351 30.7317 11.5204 30.7097 11.6871C30.6878 11.8539 30.6332 12.0146 30.5491 12.1602C30.465 12.3058 30.353 12.4335 30.2196 12.5358C30.0862 12.6381 29.9339 12.7132 29.7714 12.7566C29.6633 12.785 29.552 12.7995 29.4402 12.7998C29.1584 12.7999 28.8844 12.7069 28.6607 12.5354C28.4371 12.3638 28.2763 12.1232 28.2034 11.851C27.6987 9.91359 26.6864 8.14586 25.2709 6.73005C23.8554 5.31424 22.0879 4.30159 20.1506 3.79651C19.988 3.75323 19.8355 3.67833 19.7019 3.57607C19.5683 3.47382 19.4561 3.34622 19.3719 3.20059C19.2876 3.05496 19.2329 2.89414 19.2108 2.72734C19.1888 2.56054 19.1998 2.39102 19.2434 2.2285ZM18.8705 8.91656C21.077 9.50537 22.4946 10.9246 23.0834 13.131C23.1563 13.4033 23.3171 13.6438 23.5407 13.8154C23.7643 13.987 24.0383 14.0799 24.3202 14.0798C24.432 14.0795 24.5433 14.065 24.6514 14.0366C24.8138 13.9932 24.9661 13.9181 25.0996 13.8158C25.233 13.7135 25.345 13.5859 25.4291 13.4402C25.5132 13.2946 25.5678 13.1339 25.5897 12.9671C25.6117 12.8004 25.6005 12.631 25.557 12.4686C24.7378 9.40297 22.597 7.26215 19.5314 6.44294C19.3689 6.39955 19.1996 6.38858 19.0329 6.41065C18.8662 6.43271 18.7056 6.48739 18.56 6.57156C18.4145 6.65573 18.287 6.76774 18.1847 6.90119C18.0825 7.03464 18.0075 7.18693 17.9641 7.34935C17.9208 7.51177 17.9098 7.68114 17.9318 7.8478C17.9539 8.01447 18.0086 8.17515 18.0928 8.32068C18.1769 8.46621 18.2889 8.59373 18.4224 8.69598C18.5558 8.79822 18.7081 8.87317 18.8705 8.91656ZM30.4594 21.5135L22.9218 18.1359L22.901 18.1263C22.5097 17.9589 22.0828 17.8917 21.659 17.9308C21.2352 17.9699 20.8278 18.1141 20.4738 18.3503C20.4321 18.3778 20.392 18.4077 20.3538 18.4399L16.4593 21.7599C13.9921 20.5615 11.4449 18.0335 10.2465 15.5982L13.5713 11.6446C13.6033 11.6046 13.6337 11.5646 13.6625 11.5214C13.8936 11.1683 14.0338 10.7635 14.0707 10.3431C14.1075 9.92269 14.0398 9.4997 13.8737 9.11176V9.09256L10.4865 1.54209C10.2669 1.03531 9.88924 0.613146 9.40998 0.338621C8.93072 0.0640959 8.37552 -0.0480668 7.82727 0.0188764C5.65921 0.30417 3.66913 1.36892 2.22872 3.01426C0.788319 4.6596 -0.00390552 6.77301 1.44779e-05 8.95976C1.44779e-05 21.6639 10.3361 32 23.0402 32C25.2269 32.0039 27.3403 31.2117 28.9857 29.7713C30.631 28.3309 31.6957 26.3408 31.981 24.1727C32.0481 23.6246 31.9362 23.0696 31.662 22.5903C31.3877 22.1111 30.9659 21.7334 30.4594 21.5135Z" fill="#FA5A00"/>
</svg>
