<svg width="26" height="26" viewBox="0 0 26 26" fill="none" xmlns="http://www.w3.org/2000/svg">
<path d="M13.9318 1.60411L16.8741 7.79832C16.941 7.95554 17.0463 8.09172 17.1794 8.1933C17.3125 8.29487 17.4689 8.35828 17.6328 8.37722L24.1281 9.38064C24.3162 9.40585 24.4935 9.48633 24.6393 9.6127C24.7852 9.73906 24.8935 9.90608 24.9517 10.0943C25.01 10.2824 25.0156 10.484 24.9681 10.6754C24.9205 10.8668 24.8218 11.0402 24.6833 11.1752L20.0015 16.0187C19.882 16.1351 19.7923 16.2808 19.7406 16.4426C19.6889 16.6043 19.6768 16.777 19.7054 16.9449L20.8342 23.7566C20.8669 23.9524 20.8462 24.1537 20.7746 24.3378C20.7029 24.5219 20.5832 24.6813 20.4289 24.7979C20.2747 24.9145 20.0921 24.9837 19.902 24.9974C19.712 25.0112 19.522 24.9691 19.3538 24.8758L13.5062 21.6533C13.3564 21.5766 13.1918 21.5368 13.025 21.5368C12.8582 21.5368 12.6936 21.5766 12.5439 21.6533L6.69626 24.8758C6.52803 24.9691 6.33807 25.0112 6.148 24.9974C5.95793 24.9837 5.77539 24.9145 5.62114 24.7979C5.46689 24.6813 5.34712 24.5219 5.27547 24.3378C5.20382 24.1537 5.18316 23.9524 5.21585 23.7566L6.34466 16.8677C6.37327 16.6998 6.36117 16.5272 6.30946 16.3654C6.25775 16.2036 6.16807 16.0579 6.04858 15.9415L1.31126 11.1752C1.17111 11.0365 1.07254 10.8583 1.02751 10.6624C0.982476 10.4664 0.992904 10.261 1.05753 10.0711C1.12216 9.88116 1.23821 9.71485 1.39163 9.59231C1.54505 9.46977 1.72925 9.39624 1.92193 9.38064L8.41724 8.37722C8.58119 8.35828 8.73752 8.29487 8.87064 8.1933C9.00376 8.09172 9.10903 7.95554 9.17595 7.79832L12.1183 1.60411C12.1984 1.4237 12.3263 1.27096 12.487 1.16392C12.6477 1.05688 12.8344 1 13.025 1C13.2157 1 13.4024 1.05688 13.563 1.16392C13.7237 1.27096 13.8516 1.4237 13.9318 1.60411Z" fill="#FA5A00" stroke="#FA5A00" stroke-width="1.71429" stroke-linecap="round" stroke-linejoin="round"/>
</svg>
