<svg width="25" height="23" viewBox="0 0 25 23" fill="none" xmlns="http://www.w3.org/2000/svg">
<path d="M10.0564 1.75183C10.8178 -0.583946 14.1333 -0.583943 14.8948 1.75184L15.9838 5.09222C16.3243 6.13681 17.301 6.84405 18.403 6.84405H21.927C24.3912 6.84405 25.4157 9.98682 23.4222 11.4304L20.5712 13.4949C19.6796 14.1405 19.3066 15.2848 19.6471 16.3294L20.7361 19.6698C21.4976 22.0056 18.8153 23.9479 16.8217 22.5043L13.9708 20.4398C13.0792 19.7942 11.872 19.7942 10.9804 20.4398L8.12946 22.5043C6.13591 23.9479 3.45361 22.0056 4.21508 19.6698L5.30405 16.3294C5.64459 15.2848 5.27153 14.1405 4.37998 13.4949L1.52902 11.4304C-0.464529 9.98682 0.560023 6.84405 3.02419 6.84405H6.54817C7.65018 6.84405 8.62685 6.13681 8.96739 5.09221L10.0564 1.75183Z" fill="#54546B"/>
</svg>
