<svg width="1002" height="364" viewBox="0 0 1002 364" fill="none" xmlns="http://www.w3.org/2000/svg">
<path d="M0 329V191C0 153.288 0 134.431 11.7157 122.716C23.4315 111 42.2877 111 80.0001 111H643.405C650.692 111 654.335 111 657.899 110.349C661.463 109.698 664.871 108.41 671.687 105.834L893.718 21.9226C942.895 3.33739 967.483 -5.95521 984.742 5.97213C1002 17.8995 1002 44.1852 1002 96.7567V329C1002 366.712 1002 385.569 990.284 397.284C978.569 409 959.712 409 922 409H80C42.2876 409 23.4315 409 11.7157 397.284C0 385.569 0 366.712 0 329Z" fill="#FA5A00"/>
</svg>
