<svg width="24" height="22" viewBox="0 0 24 22" fill="none" xmlns="http://www.w3.org/2000/svg">
<path d="M21.625 0.0625H2.37502C1.79486 0.0625 1.23846 0.292968 0.828223 0.703204C0.417987 1.11344 0.187519 1.66984 0.187519 2.25V19.75C0.185772 20.1666 0.304094 20.5748 0.528327 20.9259C0.75256 21.277 1.07321 21.5561 1.45189 21.7297C1.74259 21.8658 2.05951 21.9367 2.38049 21.9375C2.89414 21.9362 3.39079 21.7533 3.78268 21.4212L3.80346 21.4037L7.18752 18.4375H21.625C22.2052 18.4375 22.7616 18.207 23.1718 17.7968C23.5821 17.3866 23.8125 16.8302 23.8125 16.25V2.25C23.8125 1.66984 23.5821 1.11344 23.1718 0.703204C22.7616 0.292968 22.2052 0.0625 21.625 0.0625ZM21.1875 15.8125H7.02346C6.50848 15.8125 6.01001 15.9941 5.6158 16.3255L5.59502 16.343L2.81252 18.7809V2.6875H21.1875V15.8125ZM7.18752 7.0625C7.18752 6.7144 7.3258 6.38056 7.57194 6.13442C7.81808 5.88828 8.15192 5.75 8.50002 5.75H15.5C15.8481 5.75 16.182 5.88828 16.4281 6.13442C16.6742 6.38056 16.8125 6.7144 16.8125 7.0625C16.8125 7.4106 16.6742 7.74444 16.4281 7.99058C16.182 8.23672 15.8481 8.375 15.5 8.375H8.50002C8.15192 8.375 7.81808 8.23672 7.57194 7.99058C7.3258 7.74444 7.18752 7.4106 7.18752 7.0625ZM7.18752 11.4375C7.18752 11.0894 7.3258 10.7556 7.57194 10.5094C7.81808 10.2633 8.15192 10.125 8.50002 10.125H15.5C15.8481 10.125 16.182 10.2633 16.4281 10.5094C16.6742 10.7556 16.8125 11.0894 16.8125 11.4375C16.8125 11.7856 16.6742 12.1194 16.4281 12.3656C16.182 12.6117 15.8481 12.75 15.5 12.75H8.50002C8.15192 12.75 7.81808 12.6117 7.57194 12.3656C7.3258 12.1194 7.18752 11.7856 7.18752 11.4375Z" fill="white"/>
</svg>
